<svg width="13" height="12" viewBox="0 0 13 12" fill="none" xmlns="http://www.w3.org/2000/svg">
<g clip-path="url(#clip0_6983_64)">
<path d="M3.82163 0.0422677C3.18323 0.0723877 2.74727 0.174268 2.36615 0.324028C1.97171 0.477748 1.63739 0.684028 1.30475 1.01787C0.972109 1.35171 0.767269 1.68627 0.614629 2.08131C0.466909 2.46327 0.366829 2.89959 0.338629 3.53835C0.310429 4.17711 0.304189 4.38243 0.307309 6.01179C0.310429 7.64115 0.317629 7.84539 0.348589 8.48547C0.379069 9.12375 0.480589 9.55959 0.630349 9.94083C0.784309 10.3353 0.990349 10.6695 1.32431 11.0022C1.65827 11.335 1.99259 11.5393 2.38859 11.6922C2.77019 11.8397 3.20663 11.9403 3.84527 11.9682C4.48391 11.9962 4.68947 12.0027 6.31835 11.9995C7.94723 11.9964 8.15231 11.9892 8.79227 11.9589C9.43223 11.9285 9.86579 11.8263 10.2471 11.6772C10.6416 11.5229 10.976 11.3172 11.3085 10.9831C11.6411 10.6491 11.8458 10.3143 11.9983 9.91899C12.1461 9.53739 12.2466 9.10095 12.2743 8.46279C12.3023 7.82235 12.3089 7.61787 12.3057 5.98875C12.3026 4.35963 12.2953 4.15539 12.2649 3.51555C12.2346 2.87571 12.1329 2.44119 11.9833 2.05971C11.8291 1.66527 11.6233 1.33131 11.2895 0.998308C10.9556 0.665308 10.6206 0.460708 10.2254 0.308548C9.84359 0.160828 9.40739 0.0601477 8.76875 0.0325477C8.13011 0.00494774 7.92455 -0.00213226 6.29507 0.000987743C4.66559 0.00410774 4.46159 0.0110677 3.82163 0.0422677ZM3.89171 10.8888C3.30671 10.8634 2.98907 10.7662 2.77739 10.6848C2.49707 10.5768 2.29739 10.4463 2.08643 10.2373C1.87547 10.0284 1.74587 9.82803 1.63643 9.54831C1.55423 9.33663 1.45523 9.01935 1.42787 8.43435C1.39811 7.80207 1.39187 7.61223 1.38839 6.01035C1.38491 4.40847 1.39103 4.21887 1.41875 3.58635C1.44371 3.00183 1.54151 2.68383 1.62275 2.47227C1.73075 2.19159 1.86083 1.99227 2.07023 1.78143C2.27963 1.57059 2.47943 1.44075 2.75939 1.33131C2.97083 1.24875 3.28811 1.15059 3.87287 1.12275C4.50563 1.09275 4.69523 1.08675 6.29687 1.08327C7.89851 1.07979 8.08859 1.08579 8.72159 1.11363C9.30611 1.13907 9.62423 1.23591 9.83555 1.31763C10.116 1.42563 10.3155 1.55535 10.5264 1.76511C10.7372 1.97487 10.8672 2.17395 10.9766 2.45451C11.0593 2.66535 11.1575 2.98251 11.1851 3.56763C11.2152 4.20039 11.222 4.39011 11.2249 5.99163C11.2278 7.59315 11.2221 7.78335 11.1944 8.41563C11.1689 9.00063 11.0719 9.31839 10.9904 9.53031C10.8824 9.81051 10.7522 10.0103 10.5427 10.221C10.3332 10.4317 10.1336 10.5616 9.85355 10.671C9.64235 10.7535 9.32471 10.8519 8.74043 10.8797C8.10767 10.9095 7.91807 10.9157 6.31583 10.9192C4.71359 10.9227 4.52459 10.9162 3.89183 10.8888M8.78303 2.79351C8.78327 2.93592 8.82573 3.07506 8.90505 3.19334C8.98438 3.31162 9.09699 3.40371 9.22866 3.45798C9.36033 3.51225 9.50513 3.52625 9.64476 3.49822C9.78438 3.47018 9.91256 3.40137 10.0131 3.30049C10.1136 3.1996 10.1819 3.07118 10.2095 2.93145C10.237 2.79172 10.2224 2.64697 10.1677 2.5155C10.1129 2.38403 10.0204 2.27175 9.90187 2.19287C9.7833 2.11398 9.644 2.07202 9.50159 2.07231C9.31067 2.07269 9.12773 2.14888 8.99298 2.28412C8.85823 2.41937 8.78271 2.60259 8.78303 2.79351ZM3.22583 6.00627C3.22919 7.70787 4.61111 9.08415 6.31235 9.08091C8.01359 9.07767 9.39083 7.69587 9.38759 5.99427C9.38435 4.29267 8.00207 2.91603 6.30059 2.91939C4.59911 2.92275 3.22259 4.30491 3.22583 6.00627ZM4.30655 6.00411C4.30577 5.60854 4.4223 5.22162 4.64142 4.89228C4.86053 4.56294 5.17239 4.30597 5.53755 4.15387C5.90271 4.00177 6.30477 3.96137 6.69289 4.03777C7.08101 4.11418 7.43776 4.30396 7.71802 4.58311C7.99829 4.86227 8.18948 5.21826 8.26742 5.60608C8.34536 5.99389 8.30655 6.39611 8.15589 6.76187C8.00524 7.12763 7.74951 7.4405 7.42104 7.66092C7.09257 7.88134 6.70612 7.9994 6.31055 8.00019C6.04789 8.00074 5.7877 7.94954 5.54483 7.84952C5.30196 7.7495 5.08117 7.60262 4.89508 7.41726C4.70898 7.2319 4.56122 7.0117 4.46024 6.76923C4.35926 6.52675 4.30704 6.26677 4.30655 6.00411Z" fill="white"/>
</g>
<defs>
<clipPath id="clip0_6983_64">
<rect width="12" height="12" fill="white" transform="translate(0.306641)"/>
</clipPath>
</defs>
</svg>
