<svg width="22" height="21" viewBox="0 0 22 21" fill="none" xmlns="http://www.w3.org/2000/svg">
<path d="M18.247 17.5413H15.2541V12.9004C15.2541 11.7937 15.2341 10.3691 13.6975 10.3691C12.1386 10.3691 11.9001 11.5749 11.9001 12.8199V17.541H8.90715V7.99741H11.7804V9.30165H11.8206C12.1082 8.81485 12.5237 8.41439 13.0229 8.14291C13.5221 7.87143 14.0863 7.73911 14.6555 7.76003C17.689 7.76003 18.2483 9.73568 18.2483 12.3059L18.247 17.5413ZM5.53011 6.69287C5.18659 6.69293 4.85077 6.59213 4.56511 6.40321C4.27945 6.21429 4.0568 5.94574 3.92529 5.63153C3.79377 5.31731 3.75931 4.97153 3.82626 4.63792C3.89322 4.30431 4.05859 3.99785 4.30145 3.7573C4.54431 3.51675 4.85375 3.3529 5.19066 3.28649C5.52756 3.22007 5.87678 3.25406 6.19417 3.38417C6.51156 3.51428 6.78286 3.73465 6.97376 4.01743C7.16466 4.30021 7.26659 4.63268 7.26665 4.97282C7.26669 5.19866 7.2218 5.42229 7.13455 5.63095C7.04731 5.83962 6.91942 6.02922 6.75816 6.18895C6.59691 6.34867 6.40545 6.47538 6.19474 6.56184C5.98404 6.6483 5.7582 6.69282 5.53011 6.69287ZM7.02658 17.5413H4.03052V7.99741H7.02658V17.5413ZM19.7392 0.501363H2.52657C2.13589 0.496997 1.75942 0.646386 1.47993 0.916702C1.20044 1.18702 1.04078 1.55614 1.03601 1.94297V19.0567C1.04062 19.4438 1.20018 19.8131 1.47966 20.0837C1.75915 20.3543 2.13569 20.504 2.52657 20.4999H19.7392C20.1308 20.5047 20.5084 20.3555 20.789 20.0849C21.0696 19.8143 21.2302 19.4445 21.2356 19.0567V1.94174C21.23 1.55414 21.0693 1.1846 20.7887 0.914287C20.5081 0.643978 20.1306 0.495015 19.7392 0.500127" fill="black"/>
</svg>
