<?xml version="1.0" encoding="utf-8"?>
<!-- Generator: Adobe Illustrator 27.0.0, SVG Export Plug-In . SVG Version: 6.00 Build 0)  -->
<svg version="1.1" id="Layer_1" xmlns="http://www.w3.org/2000/svg" xmlns:xlink="http://www.w3.org/1999/xlink" x="0px" y="0px"
	 viewBox="0 0 24 24" style="enable-background:new 0 0 24 24;" xml:space="preserve">
<path d="M5.3,7.3H0.1v16.5h5.1V7.3z"/>
<path d="M2.7,5.3C1.1,5.3,0,4.2,0,2.7c0-1.5,1.1-2.6,2.7-2.6s2.6,1.1,2.7,2.6C5.4,4.2,4.4,5.3,2.7,5.3z"/>
<path d="M24,23.8h-5.1v-9.2c0-2.1-0.7-3.6-2.6-3.6c-1.4,0-2.3,1-2.6,1.9c-0.1,0.3-0.2,0.8-0.2,1.3v9.5H8.3V12.6
	c0-2.1-0.1-3.8-0.1-5.3h4.5l0.2,2.3H13c0.7-1.1,2.3-2.7,5.1-2.7c3.4,0,5.9,2.3,5.9,7.1V23.8L24,23.8z"/>
</svg>
