<svg width="23" height="21" viewBox="0 0 23 21" fill="none" xmlns="http://www.w3.org/2000/svg">
<path d="M6.6879 0.0736786C5.5707 0.126389 4.80777 0.304679 4.14081 0.566759C3.45054 0.835769 2.86548 1.19676 2.28336 1.78098C1.70124 2.3652 1.34277 2.95068 1.07565 3.642C0.817137 4.31043 0.641997 5.07399 0.592647 6.19182C0.543297 7.30965 0.532377 7.66896 0.537837 10.5203C0.543297 13.3717 0.555897 13.7291 0.610077 14.8493C0.663417 15.9663 0.841077 16.729 1.10316 17.3962C1.37259 18.0865 1.73316 18.6713 2.31759 19.2536C2.90202 19.836 3.48708 20.1935 4.18008 20.4611C4.84788 20.7192 5.61165 20.8952 6.72927 20.9441C7.84689 20.9931 8.20662 21.0044 11.0572 20.9988C13.9077 20.9934 14.2666 20.9808 15.3865 20.9278C16.5064 20.8746 17.2652 20.6957 17.9325 20.4348C18.6228 20.1648 19.208 19.8048 19.7899 19.2201C20.372 18.6356 20.7302 18.0497 20.9971 17.3579C21.2557 16.6901 21.4316 15.9264 21.4801 14.8096C21.5291 13.6888 21.5406 13.331 21.535 10.48C21.5296 7.62906 21.5168 7.27164 21.4636 6.15192C21.4106 5.0322 21.2326 4.27179 20.9708 3.6042C20.701 2.91393 20.3408 2.3295 19.7567 1.74675C19.1723 1.164 18.5861 0.805949 17.8945 0.539669C17.2263 0.281159 16.463 0.104969 15.3454 0.0566686C14.2277 0.00836863 13.868 -0.00402137 11.0164 0.00143864C8.16483 0.00689863 7.80783 0.0190786 6.6879 0.0736786ZM6.81054 19.0551C5.78679 19.0107 5.23092 18.8406 4.86048 18.6981C4.36992 18.5091 4.02048 18.2807 3.6513 17.915C3.28212 17.5494 3.05532 17.1988 2.8638 16.7093C2.71995 16.3388 2.5467 15.7836 2.49882 14.7598C2.44674 13.6533 2.43582 13.3211 2.42973 10.5178C2.42364 7.71453 2.43435 7.38273 2.48286 6.27582C2.52654 5.25291 2.69769 4.69641 2.83986 4.32618C3.02886 3.83499 3.2565 3.48618 3.62295 3.11721C3.9894 2.74824 4.33905 2.52102 4.82898 2.3295C5.199 2.18502 5.75424 2.01324 6.77757 1.96452C7.8849 1.91202 8.2167 1.90152 11.0196 1.89543C13.8224 1.88934 14.1551 1.89984 15.2628 1.94856C16.2857 1.99308 16.8424 2.16255 17.2123 2.30556C17.703 2.49456 18.0522 2.72157 18.4212 3.08865C18.7901 3.45573 19.0176 3.80412 19.2091 4.2951C19.3538 4.66407 19.5257 5.2191 19.574 6.24306C19.6266 7.35039 19.6385 7.6824 19.6436 10.4851C19.6487 13.2877 19.6387 13.6206 19.5902 14.7271C19.5456 15.7508 19.3759 16.3069 19.2332 16.6778C19.0442 17.1681 18.8164 17.5177 18.4498 17.8865C18.0831 18.2552 17.7338 18.4825 17.2438 18.674C16.8742 18.8183 16.3183 18.9905 15.2958 19.0392C14.1885 19.0913 13.8567 19.1022 11.0527 19.1083C8.24883 19.1144 7.91787 19.1031 6.81054 19.0551ZM15.3703 4.88835C15.3708 5.13757 15.4451 5.38107 15.5839 5.58806C15.7227 5.79505 15.9198 5.9562 16.1502 6.05117C16.3806 6.14615 16.634 6.17065 16.8784 6.1216C17.1227 6.07253 17.347 5.95211 17.523 5.77557C17.6988 5.59901 17.8184 5.37427 17.8667 5.12975C17.9148 4.88522 17.8892 4.63191 17.7935 4.40184C17.6976 4.17176 17.5357 3.97527 17.3283 3.83723C17.1208 3.69917 16.877 3.62575 16.6278 3.62625C16.2937 3.62692 15.9736 3.76025 15.7378 3.99692C15.5019 4.23361 15.3698 4.55424 15.3703 4.88835ZM5.64525 10.5107C5.65113 13.4885 8.06949 15.897 11.0467 15.8913C14.0238 15.8856 16.434 13.4675 16.4283 10.4897C16.4227 7.51188 14.0037 5.10276 11.0261 5.10864C8.04849 5.11452 5.63958 7.5333 5.64525 10.5107ZM7.53651 10.5069C7.53514 9.81465 7.73907 9.13755 8.12253 8.5612C8.50597 7.98486 9.05173 7.53516 9.69076 7.26898C10.3298 7.00281 11.0334 6.93211 11.7126 7.06581C12.3918 7.19952 13.0161 7.53164 13.5066 8.02015C13.9971 8.50868 14.3316 9.13167 14.468 9.81035C14.6044 10.489 14.5365 11.1929 14.2729 11.833C14.0092 12.4731 13.5617 13.0206 12.9869 13.4063C12.412 13.7921 11.7358 13.9987 11.0435 14C10.5839 14.001 10.1285 13.9114 9.7035 13.7364C9.27848 13.5613 8.89209 13.3043 8.56644 12.9799C8.24076 12.6555 7.98218 12.2702 7.80547 11.8459C7.62875 11.4215 7.53737 10.9666 7.53651 10.5069Z" fill="black"/>
</svg>
